<svg width="304" height="304" viewBox="0 0 304 304" fill="none" xmlns="http://www.w3.org/2000/svg">
<rect width="303.128" height="303.128" rx="85" fill="#4CAF50"/>
<path d="M145.479 229.815C99.6109 226.476 92.766 203.734 92.766 189.938H53.6638C58.0697 263.47 113.143 272.67 148.784 272.67C243.982 272.67 255.83 209.348 244.454 179.593C227.932 136.377 187.729 131.714 159.956 125.344L160.9 119.005C162.395 110.296 156.756 108.92 154.527 108.841C142.946 114.589 132.393 109.604 128.564 106.393L107.007 104.498C102.412 107.972 97.2244 104.893 95.205 102.918L93.6315 103.234L92.2153 101.734C92.0894 99.0176 94.8379 98.4964 96.2278 98.5754V98.0226H93.6315C91.3656 99.4756 89.5928 97.4172 88.9896 96.2064V88.152L88.0455 87.4413C87.8566 84.03 106.272 78.4169 115.268 75.811H118.336L137.14 68.5463L130.137 67.8356C133.159 64.8033 143.434 62.0975 147.997 61.2815C146.738 57.2543 150.436 50.1474 150.436 52.4374C150.436 54.2694 150.672 59.8377 152.954 59.0705C151.852 56.3857 154.031 48.0944 154.448 49.5382C155.015 51.4965 160.507 59.2509 163.182 62.8832C195.518 75.3597 204.146 92.8109 209.679 104.735H239.419C240.914 48.9065 190.01 29.0073 149.728 29.0073C112.514 29.0073 63.6852 41.8955 58.5418 96.2064C53.8998 145.221 105.538 167.906 133.284 173.908C138.32 171.507 140.365 167.064 140.759 165.143C152.796 150.85 149.964 158.115 152.009 155.114C154.055 152.114 157.202 161.116 157.202 162.853C157.202 164.243 169.528 167.959 175.691 169.644C174.957 170.302 174.778 172.076 179.94 173.908C186.391 176.198 182.457 183.62 183.716 184.173C184.723 184.615 197.091 185.832 203.149 186.384C204.88 190.885 204.172 197.202 203.149 201.703C202.126 206.204 195.439 212.522 193.944 214.733C192.748 216.501 187.781 217.312 185.447 217.496C181.859 221.476 177.448 220.155 175.691 218.997C171.915 213.185 161.792 220.102 157.202 224.287C154.181 229.531 148.128 230.157 145.479 229.815Z" fill="white" stroke="white"/>
</svg>
